<svg width="45" height="45" viewBox="0 0 45 45" fill="none" xmlns="http://www.w3.org/2000/svg">
<g id="code" clip-path="url(#clip0_90_169)">
<path id="Vector" d="M19.6101 40.4649L15.3211 39.2204C14.8711 39.0938 14.618 38.6227 14.7445 38.1727L24.3422 5.11179C24.4687 4.66179 24.9398 4.40867 25.3898 4.53523L29.6789 5.77976C30.1289 5.90632 30.382 6.37742 30.2555 6.82742L20.6578 39.8884C20.5242 40.3384 20.0601 40.5985 19.6101 40.4649ZM11.5945 32.5759L14.6531 29.3134C14.9765 28.9688 14.9555 28.4204 14.5969 28.104L8.22655 22.5001L14.5969 16.8962C14.9555 16.5798 14.9836 16.0313 14.6531 15.6868L11.5945 12.4243C11.2781 12.0868 10.7437 12.0657 10.3992 12.3891L0.267175 21.8813C-0.0914185 22.2118 -0.0914185 22.7813 0.267175 23.1118L10.3992 32.611C10.7437 32.9344 11.2781 32.9204 11.5945 32.5759ZM34.6008 32.618L44.7328 23.1188C45.0914 22.7884 45.0914 22.2188 44.7328 21.8884L34.6008 12.3821C34.2633 12.0657 33.7289 12.0798 33.4055 12.4173L30.3469 15.6798C30.0234 16.0243 30.0445 16.5727 30.4031 16.8891L36.7734 22.5001L30.4031 28.104C30.0445 28.4204 30.0164 28.9688 30.3469 29.3134L33.4055 32.5759C33.7219 32.9204 34.2562 32.9344 34.6008 32.618Z" fill="#BD0101"/>
</g>
<defs>
<clipPath id="clip0_90_169">
<rect width="45" height="45" fill="white"/>
</clipPath>
</defs>
</svg>
